# xmcd CD database file
#
# Track frame offsets:
#	150
#	23772
#	45742
#	68637
#	90932
#	105377
#	132123
#	153568
#	190436
#	215082
#	235277
#
# Disc length: 3490 seconds
#
# Revision: 0
# Processed by: cddbd v1.5.1PL0 Copyright (c) Steve Scherf et al.
# Submitted via: CDex 1.51
#
DISCID=8e0da00b
DTITLE=Bernd Scholl - Magic Of The Water
DYEAR=1992
DGENRE=New Age
TTITLE0=Gentle Stream
TTITLE1=Rain Forest
TTITLE2=Crystal Drops
TTITLE3=Mystic Island
TTITLE4=Source Of Life
TTITLE5=Magic Of The Water
TTITLE6=Sea Coast Melody
TTITLE7=Waves Of Healing
TTITLE8=Waterfall
TTITLE9=Deep Emotion
TTITLE10=Echoes
EXTD=YEAR: 1992
EXTT0=
EXTT1=
EXTT2=
EXTT3=
EXTT4=
EXTT5=
EXTT6=
EXTT7=
EXTT8=
EXTT9=
EXTT10=
PLAYORDER=
